<?xml version="1.0" encoding="UTF-8"?>
<svg version="1.1" xmlns="http://www.w3.org/2000/svg" width="500" height="500">
<path d="M0 0 C5.56875 -0.061875 11.1375 -0.12375 16.875 -0.1875 C18.61120605 -0.21481201 20.34741211 -0.24212402 22.13623047 -0.27026367 C30.20085453 -0.34251223 37.42470474 -0.17446625 45 3 C45 3.66 45 4.32 45 5 C45.7425 5.185625 46.485 5.37125 47.25 5.5625 C51.07012012 7.55938097 52.16036489 10.22704465 54 14 C54.5878125 15.0209375 54.5878125 15.0209375 55.1875 16.0625 C59.00489525 25.16551945 57.52605703 36.08869224 54 45 C52.4375 48.125 52.4375 48.125 51 50 C50.34 50 49.68 50 49 50 C49 50.66 49 51.32 49 52 C48.34 52 47.68 52 47 52 C47 52.66 47 53.32 47 54 C37.75462931 59.28562282 28.15587398 58.45340344 17.875 58.25 C11.97625 58.1675 6.0775 58.085 0 58 C0 38.86 0 19.72 0 0 Z M17 13 C17 23.56 17 34.12 17 45 C28.53340792 45.81121606 28.53340792 45.81121606 37 41 C40.70387788 35.02600342 40.92725182 28.78171039 39.6015625 21.9453125 C38.43586758 18.41794995 36.66419828 16.41320147 33.5625 14.5625 C27.9116536 12.35201405 27.9116536 12.35201405 17 13 Z " fill="#EDEDED" transform="translate(15,215)"/>
<path d="M0 0 C8.3840625 -0.0928125 8.3840625 -0.0928125 16.9375 -0.1875 C18.68281006 -0.21481201 20.42812012 -0.24212402 22.22631836 -0.27026367 C32.5627039 -0.36583077 41.50827723 -0.17480196 49.5 7.3359375 C55.67736435 14.18895108 57.45139424 22.47891764 57.2578125 31.48046875 C56.83718455 35.59115097 55.57384845 39.20080304 54 43 C53.38125 44.5778125 53.38125 44.5778125 52.75 46.1875 C48.72987509 52.64841504 43.27119801 55.9264136 36 58 C33.10152419 58.36192321 30.2610741 58.35377293 27.34375 58.29296875 C26.64411133 58.28994751 25.94447266 58.28692627 25.22363281 58.28381348 C22.64893511 58.26830157 20.07445026 58.22641985 17.5 58.1875 C11.725 58.125625 5.95 58.06375 0 58 C0 38.86 0 19.72 0 0 Z M16 13 C16 23.56 16 34.12 16 45 C27.88582797 45.8046798 27.88582797 45.8046798 34 43 C39.25866598 37.1570378 39.35259704 33.16748057 39.2734375 25.43359375 C38.90528525 20.81065333 38.349514 19.17774405 35 16 C28.39663002 11.87289376 24.60567169 13 16 13 Z " fill="#F0F0F0" transform="translate(328,215)"/>
<path d="M0 0 C5.17638804 3.10583282 8.31386125 7.05063308 10.125 12.875 C11.12203307 21.64228089 11.79165407 32.58180633 6.125 39.875 C0.8829423 44.31935327 -4.80751167 46.34439049 -11.70703125 46.2109375 C-15.78511939 45.57901754 -19.20552303 43.70973848 -22.875 41.875 C-23.205 48.145 -23.535 54.415 -23.875 60.875 C-29.155 60.875 -34.435 60.875 -39.875 60.875 C-39.875 40.745 -39.875 20.615 -39.875 -0.125 C-34.595 -0.125 -29.315 -0.125 -23.875 -0.125 C-23.545 0.535 -23.215 1.195 -22.875 1.875 C-21.781875 1.38 -20.68875 0.885 -19.5625 0.375 C-13.32200129 -1.94858995 -6.31807409 -2.3124977 0 0 Z M-22.5 13.75 C-24.45961474 18.20366986 -24.63766479 22.08672315 -23.875 26.875 C-22.52521698 30.04321233 -22.52521698 30.04321233 -19.875 31.875 C-15.26867149 33.13127141 -12.06451483 33.26900848 -7.875 30.875 C-5.59552302 27.45578453 -5.54986895 25.97189823 -5.5 21.9375 C-5.45746094 20.37708984 -5.45746094 20.37708984 -5.4140625 18.78515625 C-5.66111741 15.79395328 -5.66111741 15.79395328 -7.5859375 13.53125 C-10.95914973 11.09056402 -13.47390924 11.24430532 -17.5234375 11.44140625 C-20.07943227 11.74084751 -20.07943227 11.74084751 -22.5 13.75 Z " fill="#EDEDED" transform="translate(169.875,229.125)"/>
<path d="M0 0 C5.61 0 11.22 0 17 0 C17.55429687 1.69769531 18.10859375 3.39539063 18.6796875 5.14453125 C19.4112204 7.36726582 20.14300427 9.58991781 20.875 11.8125 C21.23980469 12.93205078 21.60460937 14.05160156 21.98046875 15.20507812 C22.33496094 16.27822266 22.68945312 17.35136719 23.0546875 18.45703125 C23.37937012 19.44678955 23.70405273 20.43654785 24.03857422 21.45629883 C24.96105645 24.18501107 24.96105645 24.18501107 27 27 C27.31453125 25.97261719 27.6290625 24.94523437 27.953125 23.88671875 C30.43288423 15.8394185 33.04201737 7.88795367 36 0 C41.28 0 46.56 0 52 0 C49.71817102 7.63453061 47.40114766 15.25769047 45.0625 22.875 C44.56073242 24.51662109 44.56073242 24.51662109 44.04882812 26.19140625 C42.37575794 31.6393612 40.67923996 37.08000294 38.9296875 42.50390625 C38.6291748 43.44049072 38.32866211 44.3770752 38.01904297 45.34204102 C35.91994708 50.81709059 33.01129905 55.53723706 28.25 59 C27.13625 59.495 27.13625 59.495 26 60 C25.01 60.495 25.01 60.495 24 61 C22.40552536 61.08400529 20.80759455 61.10727467 19.2109375 61.09765625 C18.26992188 61.09443359 17.32890625 61.09121094 16.359375 61.08789062 C15.37453125 61.07951172 14.3896875 61.07113281 13.375 61.0625 C11.88613281 61.05573242 11.88613281 61.05573242 10.3671875 61.04882812 C7.9113984 61.03702145 5.45572896 61.020554 3 61 C2.97313447 59.02090602 2.95366625 57.04171029 2.9375 55.0625 C2.92589844 53.96035156 2.91429687 52.85820312 2.90234375 51.72265625 C3 49 3 49 4 48 C6.85877909 47.76298761 9.69883297 47.57780818 12.5625 47.4375 C13.36880859 47.39431641 14.17511719 47.35113281 15.00585938 47.30664062 C17.00368805 47.20024738 19.0018207 47.09959112 21 47 C21.66 45.68 22.32 44.36 23 43 C20.03 43 17.06 43 14 43 C5.12984813 17.47982784 5.12984813 17.47982784 1.9375 8 C1.55464844 6.865625 1.17179687 5.73125 0.77734375 4.5625 C0 2 0 2 0 0 Z " fill="#E9E9E9" transform="translate(273,229)"/>
<path d="M0 0 C0.495 1.485 0.495 1.485 1 3 C1.66 3 2.32 3 3 3 C7.1515614 10.7616148 7 14.7056661 7 24 C-3.56 24 -14.12 24 -25 24 C-23.23148964 27.18074165 -23.23148964 27.18074165 -21 30 C-18.96729438 30.23820921 -18.96729438 30.23820921 -16.625 30.25 C-15.43777344 30.28867187 -15.43777344 30.28867187 -14.2265625 30.328125 C-11.91748091 30.23795071 -11.91748091 30.23795071 -10.72265625 28.49609375 C-7.86993941 26.01856416 -4.39947189 26.69032366 -0.8125 26.8125 C0.31188477 26.83280273 0.31188477 26.83280273 1.45898438 26.85351562 C3.30629767 26.88881461 5.15324066 26.94262083 7 27 C6.34 29.64 5.68 32.28 5 35 C4.34 35 3.68 35 3 35 C3 35.66 3 36.32 3 37 C-4.89968159 41.937301 -12.61033223 44.1788488 -22 43 C-25.77356728 41.89997405 -29.38518924 40.53938709 -33 39 C-33 38.34 -33 37.68 -33 37 C-33.92039062 36.62294922 -33.92039062 36.62294922 -34.859375 36.23828125 C-38.77346287 33.97410998 -39.8323152 30.2120059 -41 26 C-42.20010897 16.26711623 -40.73414605 8.90773481 -34.8125 1.125 C-25.14542717 -6.17901058 -10.2329987 -6.53774917 0 0 Z M-23.5 9.375 C-25.16537965 11.78552327 -25.16537965 11.78552327 -25 14 C-19.72 14 -14.44 14 -9 14 C-9.33 12.35 -9.66 10.7 -10 9 C-13.2145607 6.85695954 -15.22928416 6.52789526 -19.05859375 6.60546875 C-21.32381979 6.88704104 -21.32381979 6.88704104 -23.5 9.375 Z " fill="#E9E9E9" transform="translate(430,232)"/>
<path d="M0 0 C4.12008874 3.58846439 5.95596168 6.8899042 8 12 C8 16.29 8 20.58 8 25 C-7.345 25.495 -7.345 25.495 -23 26 C-22.67 27.32 -22.34 28.64 -22 30 C-21.34 30 -20.68 30 -20 30 C-20 30.66 -20 31.32 -20 32 C-16.7 32 -13.4 32 -10 32 C-10 31.34 -10 30.68 -10 30 C-9.34 30 -8.68 30 -8 30 C-8 29.34 -8 28.68 -8 28 C-2.72 28 2.56 28 8 28 C6.82258065 35.06451613 6.82258065 35.06451613 4 38 C3.34 38 2.68 38 2 38 C2 38.66 2 39.32 2 40 C-8.98628283 44.28278822 -17.85328748 45.61543565 -29 41 C-30.36125 40.4740625 -30.36125 40.4740625 -31.75 39.9375 C-37.10578122 35.32557728 -39.7079012 27.72425975 -40.25 20.8125 C-39.73295027 12.92749165 -36.98471431 5.39003868 -31 0 C-22.12017571 -4.71691201 -8.82662782 -4.98136422 0 0 Z M-21.5 9.8125 C-23.28276418 11.97029994 -23.28276418 11.97029994 -23 15 C-17.72 15 -12.44 15 -7 15 C-8.54042748 10.19695965 -8.54042748 10.19695965 -11 8 C-16.65420755 7.35491028 -16.65420755 7.35491028 -21.5 9.8125 Z " fill="#EAEAEA" transform="translate(116,231)"/>
<path d="M0 0 C5.28 0 10.56 0 16 0 C16.04898438 1.98644531 16.09796875 3.97289062 16.1484375 6.01953125 C16.20406806 7.94573929 16.25976598 9.87194605 16.31738281 11.7980957 C16.37444092 13.7929536 16.42164442 15.7880854 16.46875 17.78320312 C16.50742188 19.03681641 16.54609375 20.29042969 16.5859375 21.58203125 C16.63306885 23.31803589 16.63306885 23.31803589 16.68115234 25.08911133 C16.79471033 28.19127028 16.79471033 28.19127028 19 31 C23.68165709 31.55028083 23.68165709 31.55028083 27.875 29.75 C30.14111806 26.22492747 30.16365178 22.46192368 30.31640625 18.359375 C30.35830078 17.28945312 30.40019531 16.21953125 30.44335938 15.1171875 C30.48267578 14.00601563 30.52199219 12.89484375 30.5625 11.75 C30.60568359 10.62335938 30.64886719 9.49671875 30.69335938 8.3359375 C30.79931933 5.55743201 30.9001526 2.77873186 31 0 C36.28 0 41.56 0 47 0 C47 14.52 47 29.04 47 44 C41.72 44 36.44 44 31 44 C31 42.68 31 41.36 31 40 C30.34 40 29.68 40 29 40 C29 40.66 29 41.32 29 42 C22.06259744 45.52376003 17.10917401 47.2752609 9.375 44.875 C4.96473994 42.42485552 2.28687442 39.57374883 0 35 C-0.08667255 32.37372867 -0.11560135 29.77437517 -0.09765625 27.1484375 C-0.0962413 26.37440582 -0.09482635 25.60037415 -0.09336853 24.80288696 C-0.08776403 22.32688558 -0.07521083 19.85097412 -0.0625 17.375 C-0.05748558 15.69791797 -0.05292257 14.02083453 -0.04882812 12.34375 C-0.03864336 8.22910403 -0.01906894 4.11465285 0 0 Z " fill="#E8E8E8" transform="translate(186,229)"/>
<path d="M0 0 C5.61 0 11.22 0 17 0 C18.31433498 3.91605959 19.6265412 7.83281028 20.9375 11.75 C21.49727539 13.41675781 21.49727539 13.41675781 22.06835938 15.1171875 C22.42607422 16.18710938 22.78378906 17.25703125 23.15234375 18.359375 C23.48226318 19.34389648 23.81218262 20.32841797 24.15209961 21.34277344 C24.85712772 23.552254 25.47314397 25.74271462 26 28 C29.2531053 19.97389593 31.95646179 12.0636586 34.203125 3.703125 C35 1 35 1 36 0 C38.53049402 -0.07313567 41.03304837 -0.09247527 43.5625 -0.0625 C44.62887695 -0.05573242 44.62887695 -0.05573242 45.71679688 -0.04882812 C47.47790013 -0.03700864 49.23896036 -0.01907263 51 0 C50.32457637 5.03587915 48.93506118 9.60175523 47.3125 14.390625 C47.04993408 15.17644958 46.78736816 15.96227417 46.5168457 16.77191162 C45.96418759 18.42319329 45.4093802 20.07375703 44.85253906 21.72363281 C43.99854726 24.25430497 43.15105889 26.78708273 42.3046875 29.3203125 C41.76600031 30.9272092 41.22695053 32.5339844 40.6875 34.140625 C40.43331299 34.89893616 40.17912598 35.65724731 39.91723633 36.4385376 C38.11726225 41.76547549 38.11726225 41.76547549 37 44 C29.74 44 22.48 44 15 44 C10.95413903 34.35217768 7.43688743 24.61267955 4.125 14.6875 C3.71967041 13.47666748 3.31434082 12.26583496 2.89672852 11.01831055 C0 2.25857868 0 2.25857868 0 0 Z " fill="#E9E9E9" transform="translate(438,229)"/>
<path d="M0 0 C2.27055764 -0.00355887 4.54006505 0.14449067 6.8046875 0.30859375 C6.8046875 3.60859375 6.8046875 6.90859375 6.8046875 10.30859375 C10.7646875 10.30859375 14.7246875 10.30859375 18.8046875 10.30859375 C18.8046875 14.26859375 18.8046875 18.22859375 18.8046875 22.30859375 C14.8446875 22.30859375 10.8846875 22.30859375 6.8046875 22.30859375 C6.8046875 28.57859375 6.8046875 34.84859375 6.8046875 41.30859375 C10.4346875 41.30859375 14.0646875 41.30859375 17.8046875 41.30859375 C17.8046875 45.59859375 17.8046875 49.88859375 17.8046875 54.30859375 C15.09526357 54.41721208 12.3902485 54.49617952 9.6796875 54.55859375 C8.91914063 54.59210938 8.15859375 54.625625 7.375 54.66015625 C2.01747464 54.75252738 -0.94699106 53.86940057 -5.1953125 50.30859375 C-8.13669488 46.15008762 -9.32522606 42.70502313 -9.29296875 37.640625 C-9.28974609 36.74794922 -9.28652344 35.85527344 -9.28320312 34.93554688 C-9.27482422 34.00677734 -9.26644531 33.07800781 -9.2578125 32.12109375 C-9.25330078 31.18072266 -9.24878906 30.24035156 -9.24414062 29.27148438 C-9.23235876 26.95045663 -9.21590808 24.62955731 -9.1953125 22.30859375 C-11.8353125 22.30859375 -14.4753125 22.30859375 -17.1953125 22.30859375 C-17.4453125 18.99609375 -17.4453125 18.99609375 -17.1953125 15.30859375 C-14.41637718 12.10212992 -11.29166843 11.77408874 -7.1953125 11.30859375 C-6.9271875 10.42171875 -6.6590625 9.53484375 -6.3828125 8.62109375 C-3.46694057 0.48734574 -3.46694057 0.48734574 0 0 Z " fill="#EEEEEE" transform="translate(253.1953125,218.69140625)"/>
<path d="M0 0 C2.97 0 5.94 0 9 0 C9 3.3 9 6.6 9 10 C12.96 10 16.92 10 21 10 C21 13.96 21 17.92 21 22 C20.67 22 20.34 22 20 22 C20 18.37 20 14.74 20 11 C16.04 11 12.08 11 8 11 C8 7.7 8 4.4 8 1 C5.03 1.66 2.06 2.32 -1 3 C-0.67 2.01 -0.34 1.02 0 0 Z " fill="#808080" transform="translate(251,219)"/>
<path d="M0 0 C0.33 0 0.66 0 1 0 C1 3.3 1 6.6 1 10 C1.66 10.33 2.32 10.66 3 11 C1.35 11.66 -0.3 12.32 -2 13 C-1.34 8.71 -0.68 4.42 0 0 Z " fill="#868686" transform="translate(164,247)"/>
</svg>
