<?xml version="1.0" encoding="UTF-8"?>
<svg version="1.1" xmlns="http://www.w3.org/2000/svg" width="500" height="500">
<path d="M0 0 C1.31287239 -0.00262848 1.31287239 -0.00262848 2.65226746 -0.00531006 C5.56458488 -0.00973184 8.47684204 -0.0067849 11.38916016 -0.00341797 C13.4234722 -0.004092 15.45778417 -0.00506286 17.49209595 -0.00631714 C21.77452352 -0.00779543 26.05693031 -0.00563937 30.33935547 -0.00097656 C35.77196648 0.0046559 41.20452738 0.00148437 46.63713646 -0.00454903 C50.85163736 -0.00820709 55.06612691 -0.00699121 59.2806282 -0.00442123 C61.27926261 -0.00376295 63.2778981 -0.00454107 65.27653122 -0.00690079 C101.63246431 -0.04033682 134.93475751 1.58653027 162.18408203 28.68994141 C165.80390123 32.49565717 168.73861655 36.71097007 171.55322266 41.12939453 C172.08431641 41.95568359 172.61541016 42.78197266 173.16259766 43.63330078 C189.03271104 70.4243427 189.80206185 104.73084156 182.74072266 134.25439453 C178.91087406 149.20378959 171.94920397 162.65916182 161.55322266 174.12939453 C160.89322266 174.12939453 160.23322266 174.12939453 159.55322266 174.12939453 C158.89322266 175.44939453 158.23322266 176.76939453 157.55322266 178.12939453 C156.89322266 178.12939453 156.23322266 178.12939453 155.55322266 178.12939453 C155.55322266 178.78939453 155.55322266 179.44939453 155.55322266 180.12939453 C154.89322266 180.12939453 154.23322266 180.12939453 153.55322266 180.12939453 C153.55322266 180.78939453 153.55322266 181.44939453 153.55322266 182.12939453 C130.78653012 201.32559397 101.77898918 202.45383141 73.40087891 202.35986328 C71.00475591 202.35866889 68.60863244 202.35821887 66.21250916 202.35847473 C61.22782397 202.35692125 56.24321177 202.34871198 51.25854492 202.33520508 C44.85591493 202.31807779 38.45336377 202.31439527 32.05071354 202.31515026 C27.12071474 202.31487932 22.19073332 202.30941258 17.26074028 202.30214882 C14.89751758 202.29896073 12.53429292 202.29699442 10.17106819 202.29625511 C6.88964545 202.29410087 3.60830872 202.28538075 0.3269043 202.2746582 C-0.65424347 202.27511139 -1.63539124 202.27556458 -2.64627075 202.27603149 C-3.5332515 202.27176651 -4.42023224 202.26750153 -5.33409119 202.2631073 C-6.10881743 202.26143146 -6.88354368 202.25975561 -7.68174648 202.25802898 C-9.44677734 202.12939453 -9.44677734 202.12939453 -10.44677734 201.12939453 C-10.54455518 198.54960186 -10.57672622 195.99660125 -10.56703186 193.41636658 C-10.56788629 192.59880168 -10.56874071 191.78123678 -10.56962103 190.93889719 C-10.57127833 188.17807442 -10.56575038 185.41731138 -10.56030273 182.65649414 C-10.56002089 180.68592836 -10.56017854 178.71536247 -10.56074524 176.74479675 C-10.56103332 171.37724944 -10.55513484 166.00972426 -10.54817128 160.64218211 C-10.54193955 155.03941506 -10.54133409 149.43664755 -10.54014587 143.83387756 C-10.53703202 133.21619895 -10.52881792 122.59853057 -10.51879638 111.98085648 C-10.50763691 99.89642129 -10.50212522 87.81198563 -10.49710095 75.72754657 C-10.48663534 50.8614902 -10.46903487 25.99544294 -10.44677734 1.12939453 C-7.1839335 -0.50202739 -3.58520834 -0.00873312 0 0 Z M43.55322266 44.12939453 C43.52988309 58.82821944 43.51223827 73.52704191 43.50141048 88.22588158 C43.49624978 95.05049635 43.48921136 101.87509963 43.4777832 108.69970703 C43.46676801 115.28082886 43.46094489 121.86194184 43.45834541 128.44307327 C43.45649195 130.95898248 43.45287285 133.474891 43.4474926 135.99079514 C43.44027643 139.50364366 43.43923196 143.01644218 43.43969727 146.52929688 C43.43610199 147.57873978 43.43250671 148.62818268 43.42880249 149.70942688 C43.43017715 150.66297562 43.43155182 151.61652435 43.43296814 152.59896851 C43.43204635 153.43042578 43.43112455 154.26188305 43.43017483 155.118536 C43.42582398 157.20105497 43.42582398 157.20105497 44.55322266 159.12939453 C50.01178705 159.17938491 55.47021384 159.21538925 60.92895508 159.23925781 C62.78021572 159.24922379 64.631461 159.26280146 66.48266602 159.28027344 C84.82256713 159.44884782 102.38396152 159.42670113 116.55322266 146.12939453 C128.45416168 133.36293266 129.91812979 117.27630709 129.80322266 100.56689453 C129.81095703 99.43832031 129.81869141 98.30974609 129.82666016 97.14697266 C129.79106246 81.67087414 127.09319117 67.96992472 116.55322266 56.12939453 C105.86452536 45.68362217 92.79196692 43.77778473 78.41650391 43.93408203 C77.41105026 43.93691193 76.40559662 43.93974182 75.36967468 43.94265747 C72.20156245 43.95372966 69.03374745 43.97880896 65.86572266 44.00439453 C63.69971115 44.01444112 61.53369516 44.02356401 59.36767578 44.03173828 C54.09609235 44.05362628 48.82467875 44.08697162 43.55322266 44.12939453 Z " fill="#FBFBFB" transform="translate(53.44677734375,131.87060546875)"/>
<path d="M0 0 C0.90783737 0.00045319 1.81567474 0.00090637 2.75102234 0.00137329 C3.70254684 -0.00198532 4.65407135 -0.00534393 5.63442993 -0.00880432 C8.80709618 -0.01836376 11.97970973 -0.02026134 15.15238953 -0.02133179 C17.36509727 -0.024546 19.57780479 -0.0279102 21.79051208 -0.03141785 C26.45134471 -0.03742506 31.11215877 -0.03925663 35.772995 -0.03866577 C41.68872171 -0.03856521 47.6043255 -0.05209857 53.52002335 -0.06943798 C58.10515362 -0.08068259 62.69025562 -0.08258104 67.27539825 -0.08205605 C69.45183986 -0.08322208 71.62828254 -0.0875646 73.80471039 -0.09538841 C84.61445201 -0.13054208 95.33838757 0.02645133 106.10844421 1.02041626 C106.93722202 1.09589849 107.76599983 1.17138071 108.61989212 1.24915028 C124.91493289 2.93586859 141.98826776 8.48994271 154.69926453 19.14663696 C154.69926453 19.80663696 154.69926453 20.46663696 154.69926453 21.14663696 C155.25613953 21.37351196 155.81301453 21.60038696 156.38676453 21.83413696 C162.14455034 25.10206945 166.52325988 31.07577417 170.69926453 36.14663696 C171.44176453 37.04382446 171.44176453 37.04382446 172.19926453 37.95913696 C180.68022144 49.38999194 185.75932724 65.20782832 187.69926453 79.14663696 C187.80996277 79.93199829 187.92066101 80.71735962 188.03471375 81.52651978 C192.13048762 112.07536335 187.19305478 143.60512826 168.38676453 168.70913696 C156.93164776 182.95267031 142.9296408 192.53687018 125.44926453 197.89663696 C124.81947693 198.09531372 124.18968933 198.29399048 123.54081726 198.49868774 C107.93223156 202.98574761 91.57690767 202.41618094 75.51176453 202.34194946 C73.11324686 202.3382113 70.71472764 202.33536813 68.31620789 202.33337402 C62.05607254 202.32580075 55.79603256 202.30620763 49.53593445 202.28396606 C43.12684926 202.26337053 36.7177484 202.25434322 30.30863953 202.24429321 C17.77213969 202.2229548 5.23571009 202.18889658 -7.30073547 202.14663696 C-7.32406122 175.95676424 -7.34171305 149.76689307 -7.35254765 123.57701206 C-7.35771129 111.41751827 -7.3647553 99.25803092 -7.37617493 87.09854126 C-7.38611967 76.50447728 -7.3925884 65.91041796 -7.39482397 55.31634945 C-7.39613143 49.70314293 -7.39921954 44.08994976 -7.40646553 38.47674751 C-7.41322244 33.1999716 -7.41535311 27.92321461 -7.41384315 22.64643478 C-7.41411963 20.70372223 -7.4161267 18.76100908 -7.41994095 16.81830025 C-7.42487305 14.17805271 -7.42373556 11.5378778 -7.42098999 8.89762878 C-7.42390283 8.11846102 -7.42681567 7.33929325 -7.42981678 6.53651434 C-7.41057849 -0.24796984 -6.69673404 0.03479474 0 0 Z M46.69926453 44.14663696 C46.69926453 82.09663696 46.69926453 120.04663696 46.69926453 159.14663696 C84.37270496 161.73517757 84.37270496 161.73517757 117.69926453 147.14663696 C129.84859026 134.94106435 132.42783811 118.74316629 133.01176453 102.02163696 C132.58550158 83.12397987 129.35218757 66.51158072 115.63676453 52.89663696 C98.68825535 38.25013243 62.54110941 44.14663696 46.69926453 44.14663696 Z " fill="#F9F9F9" transform="translate(273.3007354736328,131.85336303710938)"/>
<path d="M0 0 C0.33 0 0.66 0 1 0 C1.17549966 15.91657737 1.34148875 31.83324435 1.5 47.75 C1.51187725 48.94211216 1.5237545 50.13422432 1.53599167 51.36246109 C2.02274488 100.57843983 2.07825004 149.78072601 2 199 C40.61 199 79.22 199 119 199 C119 199.33 119 199.66 119 200 C111.96560996 200.83727978 105.04710318 201.14413468 97.96655273 201.12939453 C96.38669334 201.13202301 96.38669334 201.13202301 94.7749176 201.13470459 C91.32779242 201.13907142 87.88071936 201.13620537 84.43359375 201.1328125 C82.02889496 201.13348657 79.62419624 201.13445746 77.21949768 201.13571167 C72.19897813 201.13718123 67.17847645 201.13505624 62.15795898 201.13037109 C55.70807968 201.1246465 49.25824174 201.12797466 42.80836391 201.13394356 C37.85262232 201.13754562 32.89689064 201.13641271 27.94114876 201.13381577 C25.56117816 201.13314694 23.18120667 201.13397338 20.80123711 201.13629532 C17.4904323 201.13881899 14.17969614 201.13498658 10.86889648 201.12939453 C9.87832245 201.13141876 8.88774841 201.13344299 7.86715698 201.13552856 C6.52367943 201.13129883 6.52367943 201.13129883 5.15306091 201.12698364 C3.97928217 201.1264181 3.97928217 201.1264181 2.78179073 201.12584114 C1 201 1 201 0 200 C-0.09777783 197.42020733 -0.12994888 194.86720672 -0.12025452 192.28697205 C-0.12110894 191.46940715 -0.12196337 190.65184225 -0.12284368 189.80950266 C-0.12450099 187.04867989 -0.11897304 184.28791685 -0.11352539 181.52709961 C-0.11324355 179.55653383 -0.1134012 177.58596794 -0.1139679 175.61540222 C-0.11425598 170.24785491 -0.1083575 164.88032973 -0.10139394 159.51278758 C-0.0951622 153.91002053 -0.09455674 148.30725302 -0.09336853 142.70448303 C-0.09025468 132.08680442 -0.08204057 121.46913604 -0.07201904 110.85146195 C-0.06085957 98.76702676 -0.05534787 86.68259109 -0.05032361 74.59815204 C-0.039858 49.73209567 -0.02225753 24.86604841 0 0 Z " fill="#878485" transform="translate(43,133)"/>
<path d="M0 0 C0.33 0 0.66 0 1 0 C1.05437607 1.58294782 1.09296271 3.16644256 1.125 4.75 C1.14820313 5.63171875 1.17140625 6.5134375 1.1953125 7.421875 C0.99139502 10.1135858 0.36551721 11.69904974 -1 14 C-2.51708428 4.58997722 -2.51708428 4.58997722 0 0 Z " fill="#B7B0AD" transform="translate(238,244)"/>
</svg>
