<?xml version="1.0" encoding="UTF-8"?>
<svg version="1.1" xmlns="http://www.w3.org/2000/svg" width="500" height="500">
<path d="M0 0 C0.70337134 -0.00538554 1.40674268 -0.01077108 2.1314283 -0.01631981 C4.48314818 -0.03060072 6.83430522 -0.02349508 9.18605042 -0.01637268 C10.87521313 -0.02207702 12.56437199 -0.02904153 14.25352478 -0.03717041 C18.84345791 -0.05513184 23.4332001 -0.05392516 28.02315784 -0.04822803 C31.86863703 -0.04513358 35.71407969 -0.05123306 39.55955368 -0.05726677 C48.6530197 -0.07132665 57.74639187 -0.06974487 66.83985901 -0.05836487 C76.17078243 -0.04694437 85.50141638 -0.06085304 94.83230156 -0.08776134 C102.87346443 -0.11006866 110.91453751 -0.11652038 118.95572907 -0.11068493 C123.74407966 -0.10734224 128.53224584 -0.10954578 133.32056999 -0.12693596 C171.86053655 -0.25367143 171.86053655 -0.25367143 189.90309143 4.38768005 C191.10657227 4.68476364 192.3100531 4.98184723 193.55000305 5.28793335 C196.26428808 5.9894046 198.92202416 6.7799446 201.59059143 7.63768005 C203.00719055 8.08264832 203.00719055 8.08264832 204.45240784 8.53660583 C231.38350765 17.2151584 255.78926303 30.55083315 276.90309143 49.38768005 C277.46254456 49.88010193 278.02199768 50.3725238 278.59840393 50.87986755 C289.27792496 60.29150024 289.27792496 60.29150024 290.90309143 64.38768005 C291.56309143 64.38768005 292.22309143 64.38768005 292.90309143 64.38768005 C299.06911866 70.19501872 303.92445603 77.58324813 308.90309143 84.38768005 C309.48961487 85.1662738 310.07613831 85.94486755 310.68043518 86.74705505 C341.25871844 128.47741809 351.38260921 184.2712581 343.75660706 234.81077576 C339.13137645 262.73914528 329.14316563 288.03982877 314.90309143 312.38768005 C314.24309143 312.38768005 313.58309143 312.38768005 312.90309143 312.38768005 C312.65688049 313.09537537 312.41066956 313.80307068 312.15699768 314.5322113 C308.38897828 323.11296576 301.08036947 330.53060364 294.75074768 337.3290863 C292.75743512 339.45129498 292.75743512 339.45129498 290.90309143 342.38768005 C290.24309143 342.38768005 289.58309143 342.38768005 288.90309143 342.38768005 C288.90309143 343.04768005 288.90309143 343.70768005 288.90309143 344.38768005 C288.24309143 344.38768005 287.58309143 344.38768005 286.90309143 344.38768005 C286.90309143 345.04768005 286.90309143 345.70768005 286.90309143 346.38768005 C286.24309143 346.38768005 285.58309143 346.38768005 284.90309143 346.38768005 C284.90309143 347.04768005 284.90309143 347.70768005 284.90309143 348.38768005 C284.24309143 348.38768005 283.58309143 348.38768005 282.90309143 348.38768005 C282.90309143 349.04768005 282.90309143 349.70768005 282.90309143 350.38768005 C280.83598277 352.18018012 278.76287619 353.85595237 276.59059143 355.51268005 C275.95339172 356.00477966 275.31619202 356.49687927 274.65968323 357.00389099 C269.15123178 361.23978336 263.60157396 365.40981557 257.90309143 369.38768005 C257.09227112 369.95873474 256.28145081 370.52978943 255.44606018 371.1181488 C233.83113912 385.62770411 208.39005341 393.34093363 182.90309143 397.38768005 C182.02526001 397.55694095 181.14742859 397.72620184 180.24299622 397.90059185 C176.55475458 398.43848113 172.95369663 398.53583801 169.23658752 398.53485107 C168.10818734 398.54036611 168.10818734 398.54036611 166.9569912 398.54599255 C164.44683006 398.55696895 161.9367104 398.56086281 159.42652893 398.56468201 C157.62259288 398.57095092 155.81865811 398.5775981 154.01472473 398.58459473 C148.10252268 398.60557575 142.19032053 398.61598727 136.27809143 398.6259613 C134.24071743 398.63001022 132.20334357 398.63412718 130.16596985 398.63831139 C120.59891573 398.65734504 111.03186928 398.6715834 101.46479988 398.67992336 C90.42357083 398.68970807 79.38254159 398.71606742 68.34138298 398.75642425 C59.80280829 398.78656331 51.264291 398.80138988 42.72566414 398.80470437 C37.62706243 398.80705612 32.52867465 398.81603402 27.43013 398.84116554 C22.63659641 398.86441447 17.84341816 398.86869233 13.04984283 398.85840416 C11.2914334 398.85790802 9.53300664 398.86425149 7.77465057 398.87796021 C5.37253872 398.89563967 2.97170791 398.88859352 0.56959534 398.87542725 C-0.47195174 398.89188112 -0.47195174 398.89188112 -1.53454018 398.90866739 C-6.50036703 398.84302995 -9.35753126 397.62472483 -13.09690857 394.38768005 C-15.71794655 390.03497585 -16.47267323 386.81779443 -16.4772253 381.76558018 C-16.48188522 381.12254903 -16.48654514 380.47951789 -16.49134627 379.81700096 C-16.50328334 377.66542969 -16.49390636 375.51449142 -16.48458862 373.36291504 C-16.48876212 371.80354711 -16.49423972 370.24418223 -16.50090843 368.68482298 C-16.51537971 364.40203797 -16.51111309 360.11944514 -16.50374162 355.83664954 C-16.49901643 351.21692759 -16.51151404 346.59724761 -16.52175903 341.97753906 C-16.53896495 332.92812944 -16.53978335 323.8787892 -16.53454613 314.82936747 C-16.53050663 307.47496703 -16.53194537 300.12058712 -16.53729439 292.76618767 C-16.53804281 291.71993512 -16.53879123 290.67368257 -16.53956233 289.5957254 C-16.54109379 287.47034872 -16.54263214 285.34497204 -16.5441773 283.21959537 C-16.55790876 263.28330824 -16.55246005 243.34706034 -16.54099209 223.4107741 C-16.53105844 205.16730784 -16.54400152 186.92394297 -16.56792628 168.68049235 C-16.59230156 149.95256252 -16.60192905 131.22467994 -16.59527355 112.49673456 C-16.59177791 101.98061228 -16.59403616 91.46456802 -16.61152458 80.94845772 C-16.62622689 71.99656975 -16.6269078 63.04481473 -16.60945367 54.09292943 C-16.60092514 49.52496118 -16.59883923 44.95723062 -16.61410522 40.3892746 C-16.6279072 36.20765269 -16.62324735 32.02647309 -16.60386599 27.84487706 C-16.60009183 26.33215718 -16.60306862 24.81940225 -16.61347764 23.30671347 C-16.70540866 8.92415524 -16.70540866 8.92415524 -12.09690857 3.38768005 C-8.19613676 0.1518624 -4.97930948 0.00962295 0 0 Z M18.90309143 35.38768005 C17.87444518 38.47361881 17.77677649 40.57772451 17.77445698 43.81126499 C17.77123253 44.94462491 17.76800809 46.07798482 17.76468593 47.24568897 C17.76623453 48.49625346 17.76778313 49.74681794 17.76937866 51.03527832 C17.7675113 52.37287807 17.7652109 53.71047728 17.76251334 55.04807562 C17.7563799 58.73155248 17.75653074 62.41500669 17.75770772 66.0984875 C17.75791133 70.06783884 17.75239683 74.03718282 17.74765015 78.00653076 C17.73933513 85.78530788 17.73659494 93.56407743 17.73603777 101.34285862 C17.73556311 107.66237516 17.73351091 113.9818892 17.73033714 120.30140495 C17.7215291 138.20290965 17.71691813 156.10440835 17.71766762 174.00591523 C17.71770757 174.97148014 17.71774753 175.93704505 17.7177887 176.93186951 C17.71782958 177.89860757 17.71787046 178.86534563 17.71791258 179.86137878 C17.71831934 195.54117389 17.70874269 211.22094501 17.69465033 226.90073318 C17.6803076 242.98543604 17.67337895 259.07012718 17.67424411 275.1548366 C17.67457675 284.19138027 17.67180005 293.22789879 17.66106606 302.26443672 C17.65198878 309.95571208 17.64976292 317.64695087 17.65657548 325.33822925 C17.65985448 329.26551523 17.65984798 333.19273095 17.65122223 337.12001038 C17.64341699 340.71047588 17.64472667 344.30081471 17.65350636 347.89127689 C17.65579181 349.81532648 17.64816617 351.73937981 17.64026672 353.66341454 C17.64486551 354.79416671 17.64946431 355.92491887 17.65420246 357.08993626 C17.65398509 358.07178569 17.65376773 359.05363513 17.65354377 360.06523758 C17.67817623 362.58110862 17.67817623 362.58110862 19.90309143 364.38768005 C22.42250175 364.69258966 22.42250175 364.69258966 25.40661621 364.64164734 C27.16176796 364.65010681 27.16176796 364.65010681 28.95237732 364.65873718 C30.24314178 364.65468872 31.53390625 364.65064026 32.86378479 364.64646912 C34.23225084 364.64917847 35.60071543 364.65273909 36.96917725 364.65708923 C40.69752447 364.66623674 44.42576142 364.66265548 48.15411067 364.65633106 C52.06902154 364.65126589 55.98392299 364.65596557 59.89883423 364.65910339 C66.49231147 364.66274884 73.08574402 364.65793645 79.67921448 364.64842224 C87.25653184 364.63761319 94.83374092 364.64100541 102.41105551 364.65207505 C108.93873663 364.66122374 115.46638558 364.66239429 121.99407107 364.65719771 C125.88190858 364.65410935 129.76969573 364.65357926 133.65752983 364.66027069 C162.55389805 364.84854711 162.55389805 364.84854711 191.02809143 360.38768005 C191.87589172 360.18038269 192.72369202 359.97308533 193.59718323 359.75950623 C216.25120292 353.85483768 236.33616438 343.82030756 253.90309143 328.38768005 C255.14445862 327.32807068 255.14445862 327.32807068 256.41090393 326.24705505 C284.23153083 302.00212001 302.44860645 268.62468526 308.90309143 232.38768005 C309.0782428 231.45278748 309.25339417 230.5178949 309.43385315 229.55467224 C310.99911521 220.5006227 311.38759647 211.55044679 311.40309143 202.38768005 C311.40477325 201.60654846 311.40645508 200.82541687 311.40818787 200.02061462 C311.32797316 163.89191176 299.3919576 127.85459926 276.90309143 99.38768005 C276.25082581 98.51111755 275.59856018 97.63455505 274.92652893 96.73143005 C272.51597694 93.475819 272.51597694 93.475819 269.90309143 90.38768005 C269.24309143 90.38768005 268.58309143 90.38768005 267.90309143 90.38768005 C267.67106018 89.83209412 267.43902893 89.27650818 267.19996643 88.7040863 C251.88757322 61.35393819 210.64915746 46.39418519 182.90309143 38.38768005 C170.96133501 35.3537923 158.75925787 35.23986145 146.50563049 35.27415466 C145.10486351 35.27443749 143.70409637 35.27427695 142.30332947 35.27371216 C138.53968398 35.27342789 134.77607104 35.27926415 131.01243305 35.28628612 C127.06467165 35.29258189 123.11690932 35.29312834 119.16914368 35.29431152 C111.71093348 35.29740662 104.25273813 35.30559522 96.79453444 35.31566101 C88.29623369 35.32687902 79.7979322 35.33234687 71.29962587 35.33735645 C53.83410584 35.34777955 36.36860021 35.36534336 18.90309143 35.38768005 Z " fill="#F8F7F7" transform="translate(92.09690856933594,47.61231994628906)"/>
<path d="M0 0 C0.70610916 -0.00335861 1.41221832 -0.00671722 2.13972473 -0.01017761 C4.486885 -0.01971342 6.83397387 -0.02163333 9.18115234 -0.02270508 C10.82148263 -0.02592049 12.46181264 -0.02928477 14.10214233 -0.03279114 C17.55394146 -0.03879219 21.00571555 -0.0406305 24.45751953 -0.04003906 C28.83683291 -0.03993844 33.21598047 -0.05348118 37.5952549 -0.07081127 C40.99293724 -0.08205888 44.39058145 -0.08395426 47.78828049 -0.08342934 C49.39947445 -0.08459456 51.01066989 -0.08893233 52.62184525 -0.0967617 C66.19351924 -0.15643423 79.84243887 0.41728107 92.95458984 4.27026367 C93.6912085 4.48344238 94.42782715 4.69662109 95.18676758 4.91625977 C115.36522522 10.99895483 132.89153097 20.52066057 148.14208984 35.14526367 C149.50975077 36.29984699 150.88402662 37.44667602 152.26708984 38.58276367 C153.21583984 39.42838867 154.16458984 40.27401367 155.14208984 41.14526367 C155.14208984 41.80526367 155.14208984 42.46526367 155.14208984 43.14526367 C156.00253906 43.4778418 156.00253906 43.4778418 156.88037109 43.81713867 C161.82647662 46.72158751 164.89076612 52.49117744 168.14208984 57.14526367 C168.53122559 57.69827148 168.92036133 58.2512793 169.32128906 58.82104492 C181.70705142 76.62069331 193.88946126 103.01189239 192.14208984 125.14526367 C191.14208984 126.14526367 191.14208984 126.14526367 187.9074707 126.25878906 C186.47394858 126.25862998 185.04042072 126.25293775 183.60693359 126.24291992 C182.47705772 126.2407975 182.47705772 126.2407975 181.32435608 126.2386322 C178.90939425 126.23301743 176.49452383 126.2204625 174.07958984 126.20776367 C172.44612764 126.20275057 170.81266398 126.19818734 169.17919922 126.1940918 C165.16679399 126.18304321 161.15445744 126.16576873 157.14208984 126.14526367 C155.75419834 121.35498382 154.5548382 116.57175753 153.45458984 111.70776367 C147.1700416 85.60696186 131.25507628 63.83320709 108.49438477 49.72802734 C85.58718709 36.13291372 60.94071301 35.52409957 35.01708984 35.39526367 C24.82833984 35.31276367 14.63958984 35.23026367 4.14208984 35.14526367 C4.14208984 57.58526367 4.14208984 80.02526367 4.14208984 103.14526367 C0.87722197 104.23355296 -0.22781099 104.04427748 -3.48291016 103.27026367 C-4.67787109 102.99569336 -4.67787109 102.99569336 -5.89697266 102.71557617 C-7.85791016 102.14526367 -7.85791016 102.14526367 -8.85791016 101.14526367 C-8.95324669 98.04019117 -8.98342142 94.9573991 -8.97143555 91.85205078 C-8.97158157 90.8765477 -8.9717276 89.90104462 -8.97187805 88.89598083 C-8.97117849 85.65483415 -8.96338406 82.41374414 -8.95556641 79.17260742 C-8.95370238 76.93201224 -8.95227841 74.69141666 -8.95127869 72.45082092 C-8.94745228 66.54066857 -8.93762096 60.63054063 -8.92657471 54.72039795 C-8.91636321 48.69470551 -8.91178163 42.66900914 -8.90673828 36.64331055 C-8.8959988 24.81061751 -8.87892092 12.97794262 -8.85791016 1.14526367 C-5.91322852 -0.32707715 -3.2873733 0.00979224 0 0 Z " fill="#F3F3F3" transform="translate(178.85791015625,112.854736328125)"/>
<path d="M0 0 C7.0603552 7.53623018 9.57077479 20.51397505 12.79931641 30.17480469 C13.80489249 33.16949647 14.81443395 36.16282324 15.82666016 39.15527344 C16.07290131 39.88583954 16.31914246 40.61640564 16.57284546 41.36911011 C18.58216028 47.28266674 20.7544916 53.12739123 23.03684998 58.94096375 C24.13645768 61.78938082 24.86181641 63.90256819 24.86181641 66.98730469 C25.58135498 66.7659082 26.30089355 66.54451172 27.04223633 66.31640625 C43.90478516 61.12792969 43.90478516 61.12792969 47.37109375 60.06738281 C49.73534868 59.33584946 52.09499384 58.58927817 54.45019531 57.82910156 C55.59278809 57.46365234 56.73538086 57.09820312 57.91259766 56.72167969 C58.93651611 56.3887793 59.96043457 56.05587891 61.01538086 55.71289062 C63.76597266 55.01173625 66.03921526 54.84353563 68.86181641 54.98730469 C69.84773795 57.04658425 70.82529135 59.10987157 71.79931641 61.17480469 C72.34458984 62.32335937 72.88986328 63.47191406 73.45166016 64.65527344 C74.6658368 67.52422822 75.31608948 69.95070796 75.86181641 72.98730469 C68.69354645 76.7095385 61.40072469 79.9376544 53.92431641 82.98730469 C48.04708449 85.39384879 42.18933955 87.81013564 36.42041016 90.46777344 C30.31107792 93.27293902 24.101862 95.80156579 17.86181641 98.29980469 C16.74419922 98.75419922 15.62658203 99.20859375 14.47509766 99.67675781 C13.40646484 100.10537109 12.33783203 100.53398437 11.23681641 100.97558594 C10.27517578 101.36270752 9.31353516 101.7498291 8.32275391 102.14868164 C5.86181641 102.98730469 5.86181641 102.98730469 2.86181641 102.98730469 C-2.26156121 90.37649836 -7.33435195 77.77809981 -11.77490234 64.90917969 C-14.8215299 56.08080861 -18.10849648 47.33196644 -21.76318359 38.73730469 C-24.22925309 32.92727687 -26.22969 27.00065879 -28.13818359 20.98730469 C-35.01537858 23.12160658 -41.47328505 25.86160899 -48.00146484 28.87792969 C-51.07242761 29.96404852 -52.20293307 30.23388022 -55.13818359 28.98730469 C-51.65024893 20.90721484 -46.96912794 14.54466297 -41.13818359 7.98730469 C-40.47560547 7.22933594 -39.81302734 6.47136719 -39.13037109 5.69042969 C-33.58197451 -0.28476663 -27.51675626 -3.83986335 -19.63818359 -5.95019531 C-12.27445019 -6.08169055 -5.70698763 -4.92397489 0 0 Z " fill="#F3F2F2" transform="translate(182.13818359375,232.0126953125)"/>
<path d="M0 0 C0.680625 0.01546875 1.36125 0.0309375 2.0625 0.046875 C4 0.25 4 0.25 7 1.25 C6.42524456 7.65552727 4.35724797 13.17492415 2.046875 19.1484375 C1.44718903 20.72218643 1.44718903 20.72218643 0.83538818 22.32772827 C-3.98833246 34.9342045 -8.99441366 47.46915675 -13.99951172 60.00439453 C-20.27521744 75.7098943 -20.27521744 75.7098943 -26.04223633 91.60644531 C-28.33848948 97.94440839 -30.88524004 101.93783835 -37 105.25 C-40.01380927 106.20019963 -42.74432528 106.37752773 -45.89587402 106.38371277 C-46.88004807 106.38797775 -47.86422211 106.39224274 -48.8782196 106.39663696 C-50.48827629 106.39595718 -50.48827629 106.39595718 -52.13085938 106.39526367 C-53.83384941 106.40030159 -53.83384941 106.40030159 -55.57124329 106.40544128 C-59.32875661 106.41495 -63.08622539 106.41689422 -66.84375 106.41796875 C-69.45161966 106.42118087 -72.05948913 106.42454491 -74.6673584 106.42805481 C-80.13484996 106.43444705 -85.60232942 106.4359375 -91.06982422 106.43530273 C-97.38870987 106.43470154 -103.70751027 106.44526324 -110.02637434 106.4610464 C-116.10790774 106.47569518 -122.18940019 106.47929091 -128.27095032 106.47869301 C-130.85777637 106.47987529 -133.44460302 106.48431091 -136.03141785 106.49202538 C-139.64406476 106.50179198 -143.25649037 106.49896053 -146.86914062 106.49291992 C-147.94251175 106.49853943 -149.01588287 106.50415894 -150.1217804 106.50994873 C-151.10595444 106.50575424 -152.09012848 106.50155975 -153.10412598 106.49723816 C-153.95804176 106.49778293 -154.81195755 106.49832769 -155.69174957 106.49888897 C-158.23891492 106.22423881 -159.84924812 105.63042852 -162 104.25 C-162.75 102.125 -162.75 102.125 -163 100.25 C-159.85541188 97.64210841 -156.81131793 96.25522766 -153 94.8125 C-145.65197389 91.96630958 -138.42035551 88.87594831 -131.1875 85.75 C-120.73118997 81.24814767 -110.24987349 76.80956369 -99.73257446 72.4519043 C-98.20703698 71.81917289 -96.68227012 71.18458017 -95.15829468 70.5480957 C-93.02304238 69.65698011 -90.88503138 68.77285137 -88.74609375 67.890625 C-88.10673889 67.62247986 -87.46738403 67.35433472 -86.80865479 67.07806396 C-84.02180164 65.93717192 -82.04670925 65.25 -79 65.25 C-78.63370592 69.52343092 -79.59185923 71.73812804 -82 75.25 C-79.36 75.58 -76.72 75.91 -74 76.25 C-73.62875 74.9196875 -73.62875 74.9196875 -73.25 73.5625 C-71.89000455 69.95851205 -70.87828369 67.82530646 -68 65.25 C-65.19945408 64.82616259 -62.85643751 65.01196354 -60 65.25 C-60.50712033 68.96888239 -61.11608215 71.98454239 -63 75.25 C-60.36 75.58 -57.72 75.91 -55 76.25 C-54.731875 75.363125 -54.46375 74.47625 -54.1875 73.5625 C-52.03389831 67.55508475 -52.03389831 67.55508475 -50 65.25 C-47.205701 64.81287204 -44.85360062 65.01609831 -42 65.25 C-41 67.25 -41 67.25 -41.55859375 69.1953125 C-42.37239583 71.21354167 -43.18619792 73.23177083 -44 75.25 C-41.03 75.58 -38.06 75.91 -35 76.25 C-34.8750415 75.5271582 -34.75008301 74.80431641 -34.62133789 74.05957031 C-34.00866472 71.28918017 -33.15408201 68.91047896 -32.05859375 66.296875 C-31.64738281 65.30429687 -31.23617187 64.31171875 -30.8125 63.2890625 C-30.35875 62.20367187 -29.905 61.11828125 -29.4375 60 C-25.78873885 51.19127418 -22.24254406 42.35108571 -18.81640625 33.453125 C-18.45953232 32.52836365 -18.10265839 31.60360229 -17.73497009 30.65081787 C-16.2970276 26.92293144 -14.85978481 23.19488355 -13.43795776 19.46081543 C-12.43423823 16.82535698 -11.42103217 14.1937146 -10.40625 11.5625 C-9.95681786 10.36889862 -9.95681786 10.36889862 -9.49830627 9.15118408 C-9.21333786 8.41680115 -8.92836945 7.68241821 -8.63476562 6.92578125 C-8.39036743 6.28552002 -8.14596924 5.64525879 -7.89416504 4.9855957 C-5.99360003 1.29655361 -4.14615296 -0.15705125 0 0 Z M-86 82.25 C-86.66 83.343125 -87.32 84.43625 -88 85.5625 C-88.37125 86.17738281 -88.7425 86.79226563 -89.125 87.42578125 C-90.21623999 89.36361926 -90.21623999 89.36361926 -90 92.25 C-87.03 92.25 -84.06 92.25 -81 92.25 C-78.64089647 87.9862719 -78.64089647 87.9862719 -78 83.25 C-80.64 82.92 -83.28 82.59 -86 82.25 Z M-66 82.25 C-66.83878455 83.53813342 -67.67086783 84.83063256 -68.5 86.125 C-68.9640625 86.84429687 -69.428125 87.56359375 -69.90625 88.3046875 C-71.16336501 90.16860466 -71.16336501 90.16860466 -71 92.25 C-68.03 92.25 -65.06 92.25 -62 92.25 C-60.68 89.28 -59.36 86.31 -58 83.25 C-60.64 82.92 -63.28 82.59 -66 82.25 Z M-47 82.25 C-50.35622898 86.7552839 -50.35622898 86.7552839 -51 92.25 C-48.03 92.25 -45.06 92.25 -42 92.25 C-39.64089647 87.9862719 -39.64089647 87.9862719 -39 83.25 C-41.64 82.92 -44.28 82.59 -47 82.25 Z " fill="#ECEBEB" transform="translate(348,249.75)"/>
<path d="M0 0 C5.29776643 3.73829865 9.58055306 7.924233 13.74609375 12.8828125 C20.40476417 20.50386888 27.89989157 24.08982372 37.87109375 25.3203125 C37.53923317 28.38080452 37.19285239 29.96898304 35.0859375 32.26953125 C26.63831045 38.71754847 19.46842523 40.26623888 8.87109375 39.3203125 C2.32203045 38.08208487 -3.98818657 35.67125681 -9.12890625 31.3203125 C-9.12890625 30.6603125 -9.12890625 30.0003125 -9.12890625 29.3203125 C-10.44890625 28.9903125 -11.76890625 28.6603125 -13.12890625 28.3203125 C-13.42023438 28.85140625 -13.7115625 29.3825 -14.01171875 29.9296875 C-16.82301486 34.77431099 -19.16391154 37.67231532 -24.12890625 40.3203125 C-24.78890625 40.3203125 -25.44890625 40.3203125 -26.12890625 40.3203125 C-26.12890625 41.9703125 -26.12890625 43.6203125 -26.12890625 45.3203125 C-22.95620074 45.6387002 -21.51916414 45.58828067 -18.84765625 43.75390625 C-17.36719405 42.42201156 -15.88802825 41.08867445 -14.41015625 39.75390625 C-12.12890625 38.3203125 -12.12890625 38.3203125 -9.62109375 38.45703125 C-7.1204252 39.32325029 -5.02548079 40.34220853 -2.75390625 41.6953125 C1.03848682 43.88689644 4.81249463 45.67960222 8.87109375 47.3203125 C4.74781753 66.43732044 4.74781753 66.43732044 -1.12890625 71.3203125 C-4.09890625 70.3303125 -4.09890625 70.3303125 -7.12890625 69.3203125 C-7.33515625 69.8771875 -7.54140625 70.4340625 -7.75390625 71.0078125 C-9.66849608 74.22780449 -11.84196456 76.55471537 -15.12890625 78.3203125 C-19.79256809 79.29642777 -23.17764543 78.78696875 -27.44140625 76.6953125 C-30.41185048 74.07026877 -32.12353765 71.71401321 -34.12890625 68.3203125 C-36.43890625 70.9603125 -38.74890625 73.6003125 -41.12890625 76.3203125 C-45.54887269 73.00533767 -46.52408819 70.43378431 -48.19140625 65.4453125 C-50.11623998 59.78422769 -50.11623998 59.78422769 -52.875 54.5 C-53.28878906 53.78070313 -53.70257813 53.06140625 -54.12890625 52.3203125 C-53.79890625 51.3303125 -53.46890625 50.3403125 -53.12890625 49.3203125 C-51.28125 48.58984375 -51.28125 48.58984375 -49.06640625 48.1328125 C-48.33292969 47.97425781 -47.59945312 47.81570312 -46.84375 47.65234375 C-46.27785156 47.54277344 -45.71195313 47.43320313 -45.12890625 47.3203125 C-45.62390625 46.2065625 -46.11890625 45.0928125 -46.62890625 43.9453125 C-49.45027609 35.44070484 -49.96370248 23.60069198 -46.56640625 15.1953125 C-42.40851884 7.71699204 -36.47821847 1.51083204 -28.49609375 -1.7578125 C-19.87563512 -4.11793807 -7.94924249 -4.43174143 0 0 Z " fill="#F4F3F3" transform="translate(244.12890625,175.6796875)"/>
<path d="M0 0 C0 0.99 0 1.98 0 3 C-20.62276948 10.8224298 -40.72395678 13.3274456 -62.65234375 13.265625 C-64.37203526 13.26697665 -66.0917264 13.26892132 -67.81141663 13.27142334 C-71.37358321 13.27433922 -74.93564813 13.27018476 -78.49780273 13.26074219 C-83.06752596 13.24921833 -87.63701753 13.25600983 -92.20673275 13.26788712 C-95.73850781 13.27509134 -99.27022718 13.2728267 -102.80200386 13.26763153 C-104.48895864 13.26629775 -106.17591848 13.26793326 -107.86286736 13.27259064 C-110.20290631 13.2776463 -112.54255842 13.26996554 -114.88256836 13.25878906 C-115.57802765 13.26283752 -116.27348694 13.26688599 -116.99002075 13.27105713 C-121.77144271 13.22855729 -121.77144271 13.22855729 -124 11 C-124.23046875 8.87109375 -124.23046875 8.87109375 -124.1875 6.4375 C-124.18105469 5.63183594 -124.17460937 4.82617188 -124.16796875 3.99609375 C-124 2 -124 2 -123 1 C-119.9812262 0.87452583 -116.98425832 0.81385791 -113.96411133 0.79467773 C-113.01419312 0.78477814 -112.0642749 0.77487854 -111.08557129 0.76467896 C-107.91775048 0.73289096 -104.74991534 0.70820392 -101.58203125 0.68359375 C-99.37171558 0.66300422 -97.16140368 0.64200724 -94.95109558 0.62062073 C-89.09873745 0.56523073 -83.24634208 0.51596774 -77.3939209 0.46777344 C-72.68304227 0.42795279 -67.97220952 0.38378304 -63.26137257 0.33933926 C-57.57660635 0.28583609 -51.89182134 0.23448963 -46.20703125 0.18359375 C-44.61969146 0.16925702 -44.61969146 0.16925702 -43.00028419 0.15463066 C-28.66648188 0.02743009 -14.33435477 -0.02335512 0 0 Z " fill="#ECEBEB" transform="translate(294,368)"/>
<path d="M0 0 C4.23908238 3.82379335 8.58409996 8.41592028 9.265625 14.2890625 C9.26046875 15.05992187 9.2553125 15.83078125 9.25 16.625 C9.25773437 17.78902344 9.25773437 17.78902344 9.265625 18.9765625 C9 21 9 21 7 23 C4.6875 23.0625 4.6875 23.0625 2 22 C0.7734375 20.47265625 0.7734375 20.47265625 -0.4375 18.625 C-2.83784898 15.0133294 -4.73280322 13.31298362 -9 12 C-14.17861542 11.61184053 -17.89938917 12.49788402 -21.9375 15.8125 C-24.32992671 18.01262764 -25.57566598 20.10325318 -27 23 C-29.14156919 24.49909843 -30.35577068 25.03571965 -32.97265625 24.890625 C-35 24 -35 24 -36.37890625 21.55859375 C-36.76949219 20.52863281 -37.16007812 19.49867188 -37.5625 18.4375 C-37.98015625 17.35855469 -38.3978125 16.27960938 -38.828125 15.16796875 C-39.40820312 13.59982422 -39.40820312 13.59982422 -40 12 C-40.32484375 11.15050781 -40.6496875 10.30101562 -40.984375 9.42578125 C-41.67067939 7.62261358 -42.33785748 5.81217953 -43 4 C-39.73359798 0.73359798 -35.3676629 0.12718319 -31 -1.125 C-30.09121094 -1.40214844 -29.18242187 -1.67929687 -28.24609375 -1.96484375 C-18.33382551 -4.82713458 -9.11083744 -5.49397233 0 0 Z " fill="#EBEAEA" transform="translate(303,281)"/>
<path d="M0 0 C0 0.99 0 1.98 0 3 C-1.65 3.33 -3.3 3.66 -5 4 C-5 3.67 -5 3.34 -5 3 C-43.94 2.67 -82.88 2.34 -123 2 C-123 1.67 -123 1.34 -123 1 C-110.21120446 0.86829318 -97.42239696 0.73781991 -84.63357353 0.60884857 C-78.69288399 0.54890135 -72.75219909 0.48855603 -66.81152344 0.42724609 C-61.06025265 0.36790644 -55.30897148 0.30968407 -49.55768204 0.25218201 C-47.3820672 0.23024405 -45.20645614 0.20792803 -43.03084946 0.18519592 C-28.68665517 0.03564342 -14.34497173 -0.02785668 0 0 Z " fill="#C5C2C2" transform="translate(294,368)"/>
<path d="M0 0 C0.66 0 1.32 0 2 0 C0.15576745 11.24981852 -5.59740873 22.15871543 -14 30 C-15.32 30 -16.64 30 -18 30 C-15.54328779 25.40181741 -13.01139412 20.92773996 -10.0625 16.625 C-7.11826351 12.30780349 -4.64189293 7.80357719 -2.19921875 3.1875 C-1 1 -1 1 0 0 Z " fill="#B2ACAC" transform="translate(357,305)"/>
<path d="M0 0 C0 3 0 3 -1.57421875 4.61328125 C-2.27160156 5.17402344 -2.96898437 5.73476562 -3.6875 6.3125 C-7.92097473 9.86891638 -11.30748919 13.6743804 -14.56640625 18.15234375 C-15.10136719 18.88582031 -15.63632813 19.61929688 -16.1875 20.375 C-16.67605469 21.06335938 -17.16460937 21.75171875 -17.66796875 22.4609375 C-18.10753906 22.96882813 -18.54710937 23.47671875 -19 24 C-19.66 24 -20.32 24 -21 24 C-18.76658848 17.4760874 -7.64058536 0 0 0 Z " fill="#C4C3C4" transform="translate(151,232)"/>
<path d="M0 0 C0.33 0.99 0.66 1.98 1 3 C0.51789063 3.47050781 0.03578125 3.94101562 -0.4609375 4.42578125 C-1.09257812 5.04839844 -1.72421875 5.67101562 -2.375 6.3125 C-3.00148438 6.92738281 -3.62796875 7.54226563 -4.2734375 8.17578125 C-6.18086607 10.08812528 -6.18086607 10.08812528 -8 13 C-13.33333333 17.66666667 -13.33333333 17.66666667 -16 19 C-16 18.34 -16 17.68 -16 17 C-16.66 16.67 -17.32 16.34 -18 16 C-17.11957031 15.26394531 -16.23914063 14.52789062 -15.33203125 13.76953125 C-14.15875156 12.78397631 -12.98558023 11.79829234 -11.8125 10.8125 C-10.9452832 10.08836914 -10.9452832 10.08836914 -10.06054688 9.34960938 C-6.53189438 6.3791618 -3.21303147 3.30984598 0 0 Z " fill="#CACAC9" transform="translate(358,364)"/>
<path d="M0 0 C0.66 0 1.32 0 2 0 C1.45312177 4.10523256 0.21476417 6.54924455 -2.3125 9.8125 C-2.90675781 10.60269531 -3.50101562 11.39289063 -4.11328125 12.20703125 C-6 14 -6 14 -10 14 C-9.23570339 12.55901389 -8.46327445 11.12233946 -7.6875 9.6875 C-7.25824219 8.88699219 -6.82898438 8.08648437 -6.38671875 7.26171875 C-5.08631086 5.1407718 -3.91113733 3.583221 -2 2 C-1.34 2 -0.68 2 0 2 C0 1.34 0 0.68 0 0 Z " fill="#C4BCBB" transform="translate(349,321)"/>
<path d="M0 0 C3.96 0 7.92 0 12 0 C11.34 2.31 10.68 4.62 10 7 C9.34 7 8.68 7 8 7 C8 8.65 8 10.3 8 12 C4.04 12 0.08 12 -4 12 C-3.67 10.68 -3.34 9.36 -3 8 C-3 8.99 -3 9.98 -3 11 C-0.03 11 2.94 11 6 11 C6.99 8.03 7.98 5.06 9 2 C6.03 2 3.06 2 0 2 C0 1.34 0 0.68 0 0 Z " fill="#A5A2A2" transform="translate(261,331)"/>
<path d="M0 0 C4.63497244 6.95245866 4.12887462 13.56131331 3.125 21.5 C3.02058594 22.4178125 2.91617187 23.335625 2.80859375 24.28125 C2.55176686 26.52264833 2.2820311 28.76165794 2 31 C1.67 31 1.34 31 1 31 C0.67 20.77 0.34 10.54 0 0 Z " fill="#A9A8A8" transform="translate(402,227)"/>
<path d="M0 0 C-0.33 0.99 -0.66 1.98 -1 3 C-1.99 3 -2.98 3 -4 3 C-4 3.66 -4 4.32 -4 5 C-6.30276574 7.21747812 -7.52480092 7.96760006 -10.75 8.1875 C-11.4925 8.125625 -12.235 8.06375 -13 8 C-13.33 8.99 -13.66 9.98 -14 11 C-14.99 10.34 -15.98 9.68 -17 9 C-14.54481265 7.49462965 -12.0861548 5.99555574 -9.625 4.5 C-8.92632812 4.07074219 -8.22765625 3.64148438 -7.5078125 3.19921875 C-2.2265625 0 -2.2265625 0 0 0 Z " fill="#BDBCBA" transform="translate(334,386)"/>
<path d="M0 0 C0 0.66 0 1.32 0 2 C-0.99 2.66 -1.98 3.32 -3 4 C-3.36362818 6.20725073 -3.36362818 6.20725073 -3.1875 8.625 C-3.16042969 9.44226563 -3.13335937 10.25953125 -3.10546875 11.1015625 C-3.07066406 11.72804688 -3.03585937 12.35453125 -3 13 C-5.64465038 9.8745041 -6.84414715 6.91211733 -8 3 C-5.48696401 0.48696401 -3.51117809 0 0 0 Z " fill="#C5C2C3" transform="translate(268,282)"/>
<path d="M0 0 C0.33 0 0.66 0 1 0 C0.98839844 1.05960938 0.97679687 2.11921875 0.96484375 3.2109375 C0.95546524 4.59895658 0.94636511 5.98697755 0.9375 7.375 C0.92912109 8.07367188 0.92074219 8.77234375 0.91210938 9.4921875 C0.8164558 13.37295376 0.8164558 13.37295376 2 17 C1.71758117 19.3400417 1.38749213 21.67504723 1 24 C-1.04209893 20.93685161 -1.25016253 20.3225707 -1.23046875 16.875 C-1.22853516 16.08609375 -1.22660156 15.2971875 -1.22460938 14.484375 C-1.21236328 13.66453125 -1.20011719 12.8446875 -1.1875 12 C-1.18685547 11.18015625 -1.18621094 10.3603125 -1.18554688 9.515625 C-1.15984783 6.02055551 -1.1158005 3.34740151 0 0 Z " fill="#BAB7B8" transform="translate(197,193)"/>
<path d="M0 0 C7.26 0 14.52 0 22 0 C22 0.99 22 1.98 22 3 C20.35 3.33 18.7 3.66 17 4 C17.33 3.01 17.66 2.02 18 1 C12.06 1 6.12 1 0 1 C0 0.67 0 0.34 0 0 Z " fill="#514F4E" transform="translate(272,368)"/>
<path d="M0 0 C0.82638376 2.89234315 1 4.88742431 1 8 C0.34 8 -0.32 8 -1 8 C-1.268125 8.928125 -1.53625 9.85625 -1.8125 10.8125 C-2.94480421 13.85184289 -3.69900511 14.90073617 -6 17 C-4.33846988 11.14340094 -2.52958084 5.5409866 0 0 Z " fill="#B4B3B3" transform="translate(327,289)"/>
<path d="M0 0 C1.32 0 2.64 0 4 0 C2.84414715 3.91211733 1.64465038 6.8745041 -1 10 C-1.33 8.35 -1.66 6.7 -2 5 C-1.34 4.67 -0.68 4.34 0 4 C0 2.68 0 1.36 0 0 Z " fill="#C3C3C2" transform="translate(414,338)"/>
<path d="M0 0 C0.33 1.32 0.66 2.64 1 4 C-3.53701494 5.45184478 -7.18061476 6.23509196 -12 6 C-11.67 4.68 -11.34 3.36 -11 2 C-10.67 2.66 -10.34 3.32 -10 4 C-5.545 3.505 -5.545 3.505 -1 3 C-0.67 2.01 -0.34 1.02 0 0 Z " fill="#BEBABB" transform="translate(287,338)"/>
<path d="M0 0 C0 3.34419152 -0.47519394 4.06840321 -2.375 6.6875 C-2.81585938 7.31011719 -3.25671875 7.93273437 -3.7109375 8.57421875 C-4.13632813 9.04472656 -4.56171875 9.51523438 -5 10 C-5.66 10 -6.32 10 -7 10 C-7 10.99 -7 11.98 -7 13 C-7.66 12.67 -8.32 12.34 -9 12 C-6.45335415 7.18966896 -4.00972202 3.67557852 0 0 Z " fill="#AEACAE" transform="translate(207,179)"/>
<path d="M0 0 C1.67542976 0.28604898 3.34385343 0.61781233 5 1 C4.34 1.66 3.68 2.32 3 3 C2.34 3 1.68 3 1 3 C0.67 3.66 0.34 4.32 0 5 C-3.0625 5.625 -3.0625 5.625 -6 6 C-4 4 -2 2 0 0 Z " fill="#B5B3B3" transform="translate(232,214)"/>
<path d="M0 0 C0.66 0 1.32 0 2 0 C2.33 0.66 2.66 1.32 3 2 C3.99 2.33 4.98 2.66 6 3 C6.6875 5.0625 6.6875 5.0625 7 7 C6.34 7 5.68 7 5 7 C5 6.34 5 5.68 5 5 C3.10820797 4.3185177 3.10820797 4.3185177 1 4 C0.34 4.66 -0.32 5.32 -1 6 C-0.67 4.02 -0.34 2.04 0 0 Z " fill="#949292" transform="translate(230,200)"/>
<path d="M0 0 C0.66 0.33 1.32 0.66 2 1 C2 1.66 2 2.32 2 3 C5.3 3.33 8.6 3.66 12 4 C12 4.33 12 4.66 12 5 C6.49633208 5.32374517 2.56327794 5.53286034 -2 2 C-1.34 1.34 -0.68 0.68 0 0 Z " fill="#A3A1A1" transform="translate(217,249)"/>
<path d="M0 0 C0.33 0.66 0.66 1.32 1 2 C0.67 2.66 0.34 3.32 0 4 C0.66 4.33 1.32 4.66 2 5 C1.01 5.99 0.02 6.98 -1 8 C-1.99 7.67 -2.98 7.34 -4 7 C-2.68 4.69 -1.36 2.38 0 0 Z " fill="#9F9B9B" transform="translate(343,328)"/>
<path d="M0 0 C1.32 0.33 2.64 0.66 4 1 C3.04882866 2.1725131 2.08882991 3.33787015 1.125 4.5 C0.59132812 5.1496875 0.05765625 5.799375 -0.4921875 6.46875 C-0.98976562 6.9740625 -1.48734375 7.479375 -2 8 C-2.66 8 -3.32 8 -4 8 C-2.87548273 5.0280615 -1.77706209 2.66559313 0 0 Z " fill="#BBBABA" transform="translate(134,248)"/>
<path d="M0 0 C3.63 0 7.26 0 11 0 C10.67 1.32 10.34 2.64 10 4 C9.67 3.34 9.34 2.68 9 2 C6.03 2 3.06 2 0 2 C0 1.34 0 0.68 0 0 Z " fill="#AAA8A8" transform="translate(300,331)"/>
<path d="M0 0 C-0.875 4.75 -0.875 4.75 -2 7 C-2.66 7 -3.32 7 -4 7 C-3.67 5.68 -3.34 4.36 -3 3 C-4.32 2.34 -5.64 1.68 -7 1 C-4.50935112 0.31292445 -2.62113708 0 0 0 Z " fill="#907E80" transform="translate(292,331)"/>
<path d="M0 0 C0.33 1.32 0.66 2.64 1 4 C1.66 4.33 2.32 4.66 3 5 C2.34 5 1.68 5 1 5 C1 5.66 1 6.32 1 7 C0.34 7 -0.32 7 -1 7 C-1 7.99 -1 8.98 -1 10 C-1.66 10 -2.32 10 -3 10 C-2.01 6.7 -1.02 3.4 0 0 Z " fill="#A9A1A1" transform="translate(393,306)"/>
<path d="M0 0 C1.65 0.99 3.3 1.98 5 3 C4.67 5.31 4.34 7.62 4 10 C1.81024227 6.71536341 1.00193437 3.79303725 0 0 Z " fill="#959392" transform="translate(168,289)"/>
<path d="M0 0 C0.33 0 0.66 0 1 0 C1 2.64 1 5.28 1 8 C0.34 8 -0.32 8 -1 8 C-1 8.66 -1 9.32 -1 10 C-1.66 10 -2.32 10 -3 10 C-2.01 6.7 -1.02 3.4 0 0 Z " fill="#AEACAB" transform="translate(337,263)"/>
<path d="M0 0 C3.55780196 0.60990891 6.6828589 1.5783681 10 3 C10 3.33 10 3.66 10 4 C8.72125 3.896875 7.4425 3.79375 6.125 3.6875 C5.04605469 3.60048828 5.04605469 3.60048828 3.9453125 3.51171875 C2 3 2 3 0 0 Z " fill="#B1B0B0" transform="translate(302,59)"/>
<path d="M0 0 C0.33 0.66 0.66 1.32 1 2 C-0.25 4.5625 -0.25 4.5625 -2 7 C-2.99 7.33 -3.98 7.66 -5 8 C-3.62845496 5.04590299 -2.01136276 2.55991624 0 0 Z " fill="#B4B3B3" transform="translate(372,347)"/>
<path d="M0 0 C0.66 0 1.32 0 2 0 C1.34 2.97 0.68 5.94 0 9 C-1 5 -1 5 -1 1 C-0.67 0.67 -0.34 0.34 0 0 Z " fill="#848381" transform="translate(357,305)"/>
<path d="M0 0 C1.41687119 4.25061356 0.19320039 6.71851625 -1 11 C-1.33 11 -1.66 11 -2 11 C-2.94693195 7.2983569 -3.30443767 5.60887535 -1.5625 2.125 C-1.046875 1.42375 -0.53125 0.7225 0 0 Z " fill="#B1ACAA" transform="translate(431,297)"/>
<path d="M0 0 C0.66 0.33 1.32 0.66 2 1 C1.34 2.65 0.68 4.3 0 6 C-0.33 5.34 -0.66 4.68 -1 4 C-1.66 4 -2.32 4 -3 4 C-3 4.66 -3 5.32 -3 6 C-3.66 5.67 -4.32 5.34 -5 5 C-3.35 3.35 -1.7 1.7 0 0 Z " fill="#B1AEB0" transform="translate(83,49)"/>
</svg>
